<svg width="126" height="126" viewBox="0 0 126 126" fill="none" xmlns="http://www.w3.org/2000/svg">
<path d="M104.588 87.8535C105.778 88.3304 106.804 89.143 107.541 90.1924C108.203 91.1767 108.667 92.3659 108.959 93.7597C109.116 94.5787 109.305 95.3347 109.51 96.0435C109.896 97.3715 110.477 98.6348 111.234 99.792C111.605 100.367 112.101 100.997 112.715 101.698C113.243 102.273 113.715 103.013 114.132 103.911C114.517 104.718 114.724 105.599 114.739 106.494C114.769 107.353 114.511 108.199 114.006 108.895C113.493 109.572 112.867 110.155 112.156 110.62C111.211 111.274 110.226 111.849 109.203 112.345C108.179 112.833 107.155 113.345 106.131 113.88C104.601 114.61 103.138 115.474 101.761 116.463C100.532 117.369 99.2959 118.511 98.0674 119.913C96.6352 121.517 94.9772 122.904 93.1455 124.031C92.2101 124.625 91.1943 125.081 90.1294 125.386C89.1056 125.669 88.0819 125.858 87.0581 125.937C84.6799 125.937 82.7111 125.527 81.1519 124.708C79.5926 123.889 78.2381 122.393 77.0884 120.22C76.7576 119.598 76.4347 119.212 76.104 119.046C75.5933 118.83 75.0555 118.684 74.5054 118.613L68.2763 118.125C66.2288 117.967 64.1419 117.881 62.0078 117.881C60.2353 117.883 58.4658 118.025 56.7158 118.306C54.9124 118.597 53.1247 118.944 51.3607 119.353C50.9985 119.432 50.6284 119.747 50.2583 120.275C49.7974 120.915 49.2809 121.513 48.7147 122.062C47.9476 122.793 47.0536 123.377 46.0766 123.787C44.6845 124.331 43.2005 124.601 41.706 124.582C40.3515 124.582 38.8946 124.441 37.3354 124.157C35.8766 123.904 34.466 123.425 33.1537 122.74C30.7865 121.529 28.2598 120.659 25.6489 120.157C23.184 119.708 20.5852 119.29 17.8369 118.928C16.9259 118.81 16.0217 118.644 15.1279 118.432C14.3021 118.245 13.5244 117.889 12.8441 117.385C12.2199 116.923 11.6994 116.335 11.3164 115.66C10.8964 114.8 10.6834 113.853 10.6942 112.896C10.6942 111.62 10.8596 110.392 11.1904 109.203C11.5211 108.021 11.7022 106.761 11.7416 105.454C11.7416 104.548 11.6786 103.666 11.5605 102.808C11.4303 101.889 11.3462 100.964 11.3085 100.036C11.3085 97.9492 11.8046 96.4136 12.789 95.4214C13.7734 94.437 15.2066 93.6574 17.0966 93.0825C17.9363 92.8283 18.727 92.4343 19.4355 91.917C20.0854 91.4267 20.7011 90.8926 21.2782 90.3184C21.8642 89.7296 22.399 89.092 22.8769 88.4126C23.373 87.7117 23.9242 87.0109 24.5385 86.3179C24.661 86.1602 24.7275 85.9663 24.7275 85.7666C24.7275 85.2705 24.7039 84.798 24.6645 84.3491L24.5385 82.8686C24.5385 80.0809 24.9716 77.2774 25.83 74.4424C26.6962 71.6074 27.8224 68.8511 29.2162 66.1342C30.6079 63.4335 32.1704 60.8242 33.894 58.3222C35.6107 55.8259 37.3196 53.5027 38.997 51.3686C41.2754 48.5162 43.0832 45.318 44.352 41.895C45.5332 38.619 46.1554 35.0437 46.1948 31.185C46.1948 29.5549 46.116 27.9326 45.9506 26.334C45.7854 24.6986 45.7039 23.0558 45.7065 21.4121C45.7065 18.1282 46.0766 15.1751 46.809 12.5527C47.5492 9.9225 48.699 7.67025 50.2583 5.78025C51.8175 3.89025 53.8493 2.48062 56.3456 1.53562C58.8578 0.590625 61.8502 0.07875 65.331 0C69.4811 0 72.7808 0.819 75.2456 2.46487C77.7026 4.10287 79.5926 6.25275 80.8999 8.92237C82.215 11.5841 83.0576 14.5609 83.4199 17.8447C83.7979 21.1207 84.0026 24.444 84.042 27.8066V28.854C84.042 30.5392 84.0578 32.0355 84.105 33.3427C84.1783 36.0005 84.7835 38.6166 85.8848 41.0366C86.4596 42.3045 87.318 43.6826 88.4678 45.1552C90.4365 47.7461 92.4525 50.3527 94.5 52.9751C96.5475 55.5975 98.4139 58.3065 100.091 61.0864C101.777 63.882 103.155 66.7957 104.218 69.8276C105.289 72.8674 105.84 76.1434 105.879 79.6714C105.89 82.4529 105.454 85.2181 104.588 87.8614V87.8535ZM52.9751 23.751C53.5421 23.751 54.0146 23.8927 54.3926 24.1762C54.7767 24.4853 55.0727 24.89 55.251 25.3496C55.4487 25.8226 55.5914 26.3167 55.6763 26.8222C55.755 27.3184 55.8023 27.8302 55.8023 28.3657C55.8151 28.704 55.7504 29.0407 55.6133 29.3501C55.4783 29.6116 55.2906 29.8422 55.062 30.0274L54.3217 30.6416C54.0578 30.8651 53.8129 31.1101 53.5894 31.374C53.294 31.8338 52.8914 32.2148 52.416 32.4844C51.9283 32.7675 51.4552 33.075 50.9985 33.4057C50.5623 33.7222 50.1515 34.0724 49.77 34.4531C49.5793 34.6587 49.4322 34.9007 49.3374 35.1646C49.2427 35.4285 49.2023 35.7088 49.2188 35.9887C49.2188 36.3589 49.3999 36.666 49.77 36.9101C50.6883 37.4885 51.4166 38.3236 51.8648 39.312C52.2743 40.257 52.731 41.1784 53.2193 42.084C53.7075 42.9817 54.3454 43.7377 55.125 44.3599C55.9046 44.9741 57.1174 45.2812 58.7475 45.2812H59.1255C60.7635 45.2025 62.3228 44.7694 63.8033 43.9897C65.2759 43.2101 66.7564 42.3911 68.229 41.5249C68.4855 41.3806 68.7543 41.2594 69.0323 41.1626C69.3183 41.0606 69.5867 40.9144 69.8276 40.7295L74.3164 37.2251C74.3945 36.9612 74.4576 36.693 74.5054 36.4219C74.5532 36.134 74.5952 35.8452 74.6314 35.5556C74.6452 35.1641 74.535 34.7782 74.3164 34.4531C74.115 34.1674 73.8675 33.9173 73.584 33.7129C73.2691 33.4982 72.912 33.3532 72.5366 33.2876C72.1613 33.2123 71.7926 33.1069 71.4341 32.9726C70.4525 32.7708 69.5142 32.3976 68.6621 31.8701C67.8163 31.3448 66.9056 30.9318 65.9531 30.6416C65.7956 30.5944 65.6696 30.4762 65.583 30.2715C65.4892 30.029 65.4078 29.7819 65.3389 29.5312C65.2578 29.2716 65.2363 28.9971 65.2759 28.728C65.3207 28.5218 65.2987 28.3066 65.2129 28.1137C65.2129 27.6255 65.2523 27.1136 65.3389 26.5781C65.4239 26.036 65.6109 25.5149 65.8901 25.0425C66.1302 24.605 66.4669 24.2279 66.8745 23.94C67.36 23.6567 67.911 23.5047 68.4731 23.499C69.7489 23.499 70.6703 23.9715 71.2451 24.9165C71.82 25.8615 72.1271 26.8852 72.1665 27.9877C72.1767 28.4778 72.0715 28.9634 71.8594 29.4052C71.6492 29.8256 71.5413 30.2897 71.5444 30.7597C71.5444 31.0905 71.6546 31.311 71.8594 31.437C72.1074 31.573 72.3809 31.6561 72.6626 31.6811C73.6076 31.6811 74.214 31.4606 74.5054 31.0117C74.8368 30.3865 75.0048 29.6876 74.9936 28.98C74.9936 28.035 74.9149 26.9876 74.7574 25.8379C74.6015 24.7255 74.2664 23.6458 73.7651 22.6406C73.3062 21.6967 72.6574 20.8576 71.8594 20.1757C71.0049 19.4968 69.9335 19.15 68.8433 19.1992C66.717 19.1992 65.1735 19.7269 64.2285 20.7979C63.2835 21.861 62.7953 23.4596 62.7559 25.5937C62.7559 26.208 62.7953 26.8222 62.874 27.4365C62.9528 28.0586 63 28.6729 63 29.2871C63 29.4919 62.9764 29.5942 62.937 29.5942C62.8092 29.5665 62.6851 29.5242 62.5669 29.4682C62.3216 29.3688 62.0774 29.2664 61.8345 29.1611C61.5335 29.034 61.2227 28.9313 60.9053 28.854C60.3819 28.7268 59.8384 28.7054 59.3066 28.791C58.9801 28.8324 58.6514 28.8534 58.3223 28.854C57.7474 28.854 57.456 28.7516 57.456 28.5469C57.456 27.9326 57.4245 27.153 57.3379 26.208C57.2591 25.263 57.0544 24.318 56.7236 23.373C56.4486 22.5322 56.0333 21.7441 55.4951 21.042C54.999 20.4277 54.2666 20.097 53.2822 20.0576C52.621 20.0424 51.9798 20.2853 51.4946 20.7349C50.9892 21.2026 50.5541 21.741 50.2031 22.3335C49.8258 22.9733 49.5945 23.6886 49.5259 24.4282C49.4598 25.0863 49.3784 25.7427 49.2817 26.397C49.3133 27.4835 49.4989 28.5599 49.833 29.5942C50.0378 30.2479 50.2661 30.8227 50.5103 31.3189C50.7544 31.8071 51.0458 32.0512 51.3765 32.0512C51.5734 32.0512 51.849 31.9095 52.1719 31.626C52.5026 31.3346 52.668 31.0747 52.668 30.8227C52.668 30.6967 52.605 30.618 52.479 30.5786C52.3599 30.5376 52.2349 30.5163 52.1089 30.5156C51.8254 30.5156 51.5734 30.3739 51.3686 30.0825C51.1576 29.7806 50.993 29.4488 50.8804 29.0981C50.7511 28.7115 50.6278 28.323 50.5103 27.9326C50.265 26.8701 50.4191 25.7545 50.9434 24.7984C51.3135 24.1369 51.9908 23.7904 52.9751 23.751V23.751ZM39.5561 119.542C40.5405 119.542 41.5091 119.464 42.4541 119.29C43.3896 119.13 44.2869 118.796 45.1001 118.306C45.8799 117.855 46.5182 117.195 46.9429 116.4C47.3909 115.478 47.643 114.472 47.6831 113.447C47.6832 112.715 47.558 111.988 47.313 111.297C47.0628 110.593 46.7099 109.93 46.2656 109.329C45.7796 108.558 45.2457 107.819 44.667 107.116C44.0881 106.41 43.5541 105.668 43.0684 104.895C42.3025 103.769 41.5412 102.641 40.7846 101.509C40.0522 100.406 39.312 99.2407 38.5796 98.0044C37.9321 96.9566 37.315 95.8904 36.729 94.8071C36.1269 93.7012 35.4258 92.6522 34.6342 91.6729C34.1344 91.0488 33.5576 90.4904 32.9175 90.0112C32.2599 89.5171 31.4562 89.2565 30.6337 89.271C29.7758 89.2583 28.9442 89.5674 28.3027 90.1372C27.5696 90.7762 26.8901 91.4741 26.271 92.2241C25.5449 93.0751 24.7635 93.8775 23.9321 94.626C23.0659 95.4056 21.9634 96.0199 20.6089 96.4687C19.6923 96.7146 18.8491 97.1794 18.1519 97.8232C17.577 98.3981 17.2856 99.2801 17.2856 100.469C17.2856 101.288 17.3486 102.107 17.4746 102.926C17.5927 103.745 17.6794 104.572 17.7187 105.391C17.7187 106.494 17.5612 107.541 17.2226 108.525C16.905 109.456 16.7401 110.432 16.7344 111.415C16.7344 112.526 17.1281 113.305 17.8999 113.754C18.6874 114.211 19.5615 114.518 20.5459 114.676C21.7822 114.888 22.9477 115.046 24.0581 115.172C25.1606 115.298 26.2474 115.487 27.3184 115.723C28.3815 115.975 29.4446 116.235 30.5156 116.526C31.5787 116.81 32.7127 117.267 33.9019 117.881C34.1381 117.999 34.5161 118.149 35.0044 118.306L36.666 118.857C37.2802 119.07 37.8551 119.235 38.3906 119.353C38.7717 119.456 39.1622 119.519 39.5561 119.542V119.542ZM62.0786 112.156C63.2284 112.156 64.4569 112.038 65.772 111.786C68.4495 111.284 71.039 110.392 73.458 109.14C74.5842 108.566 75.6545 107.888 76.6553 107.116C76.7548 107.004 76.8395 106.879 76.9073 106.746C76.9857 106.587 77.0464 106.421 77.0884 106.249V106.186C77.3325 105.289 77.5372 104.296 77.7026 103.233C77.8733 102.15 78.0177 101.063 78.1358 99.9731C78.2548 98.8831 78.3992 97.7961 78.5689 96.7129C78.7264 95.6497 78.876 94.6024 78.9941 93.5786C79.1595 92.4761 79.3643 91.4051 79.6084 90.3814C79.8604 89.3576 80.1833 88.389 80.5928 87.4834C80.9976 86.5916 81.5605 85.7805 82.2544 85.0894C83.062 84.311 83.9737 83.6484 84.9634 83.1206V82.9946L84.9004 82.8135C84.9141 82.3959 85.0421 81.99 85.2705 81.6401C85.5462 81.188 85.8541 80.7564 86.1919 80.3486C86.5197 79.9345 86.9167 79.5801 87.3653 79.3012C87.7751 79.0555 88.2076 78.8498 88.6568 78.687C88.4085 77.6974 88.1407 76.7128 87.8535 75.7339C87.5683 74.7595 87.3214 73.7744 87.1133 72.7807C86.9117 71.5233 86.6675 70.2731 86.3809 69.0322C86.1527 68.0698 85.8634 67.1229 85.5146 66.1972C85.1621 65.2952 84.685 64.4469 84.0971 63.6772C83.4908 62.8582 82.7269 61.866 81.8291 60.7241C81.4862 60.3408 81.1754 59.9299 80.8999 59.4956C80.686 59.0075 80.5633 58.4844 80.5376 57.9521C80.4395 57.4137 80.316 56.8802 80.1675 56.3535C79.6144 54.3592 78.9786 52.3887 78.2617 50.4472C77.8835 49.4106 77.4308 48.4026 76.9073 47.4311C76.4889 46.6532 76.037 45.8939 75.5528 45.1552C75.1433 44.541 74.7101 44.2339 74.2613 44.2339C73.2769 44.2339 72.1035 44.6276 70.749 45.4072C69.4024 46.1869 67.9613 47.0452 66.4493 47.9902C64.9294 48.9352 63.4568 49.8172 62.0156 50.6362C60.5824 51.4552 59.2909 51.8411 58.1411 51.8017C56.9141 51.8009 55.7225 51.3908 54.7549 50.6362C53.712 49.8416 52.7611 48.933 51.9199 47.9272C51.0615 46.9035 50.3449 46.0215 49.77 45.2812C49.1951 44.541 48.7699 44.1315 48.4785 44.0527C48.1556 44.0527 47.9666 44.2969 47.9272 44.7851C47.8834 45.3379 47.8624 45.8922 47.8643 46.4467V47.4941C47.8643 47.7461 47.8249 47.9036 47.7382 47.9902C47.2894 48.9352 46.7933 49.8566 46.2656 50.7544C45.7301 51.66 45.2025 52.5814 44.667 53.5264C43.6062 55.3424 43.0136 57.3937 42.9424 59.4956C42.9424 60.1099 42.9817 60.7241 43.0684 61.3384C43.1471 61.9526 43.3519 62.5511 43.6826 63.126L43.5566 63.3622C43.2405 63.8012 42.8902 64.2146 42.5092 64.5986C42.1212 64.994 41.773 65.4265 41.4697 65.8901C39.9634 68.1153 38.8772 70.5975 38.2646 73.2139C37.6504 75.8362 37.3196 78.5059 37.2802 81.207C37.2802 81.9079 37.3275 82.6087 37.4062 83.3017C37.485 84.0026 37.5322 84.6956 37.5322 85.3965C37.5298 85.6236 37.5088 85.8501 37.4692 86.0737C37.4297 86.2974 37.4086 86.5239 37.4062 86.751C38.2816 86.8497 39.1238 87.143 39.8711 87.6094C40.8161 88.1449 41.8399 88.8221 42.9424 89.6411C44.0449 90.4601 45.1001 91.4051 46.0845 92.4761C47.0689 93.5392 48.006 94.5787 48.9116 95.6104C49.8173 96.6341 50.4709 97.6579 50.8804 98.6816C51.2899 99.7054 51.5576 100.548 51.6757 101.202C51.6969 101.678 51.6205 102.153 51.4512 102.599C51.282 103.044 51.0234 103.451 50.6914 103.792C49.9852 104.481 49.1503 105.025 48.2344 105.391C48.9353 106.62 49.7936 107.667 50.8174 108.525C51.8411 109.392 52.9515 110.085 54.1406 110.62C55.3298 111.156 56.6213 111.541 58.0151 111.786C59.409 112.038 60.7714 112.156 62.0786 112.156V112.156ZM86.751 120.897C87.6094 120.897 88.452 120.771 89.271 120.527C90.5121 120.171 91.6932 119.632 92.7754 118.928C93.8464 118.227 94.8229 117.369 95.7285 116.337C97.8678 113.869 100.485 111.86 103.422 110.431L105.454 109.51C106.151 109.206 106.827 108.856 107.478 108.462C107.948 108.165 108.384 107.816 108.777 107.423C108.976 107.231 109.132 107.001 109.238 106.746C109.344 106.492 109.396 106.218 109.392 105.942C109.392 105.626 109.328 105.312 109.203 105.021C109.056 104.693 108.871 104.384 108.651 104.1C108.09 103.318 107.557 102.517 107.053 101.698C106.597 100.952 106.204 100.17 105.879 99.3589L104.895 96.9019C104.54 95.9999 104.25 95.0735 104.029 94.1299C103.943 93.8383 103.799 93.5675 103.604 93.3345C103.208 92.7426 102.667 92.2619 102.033 91.938C101.399 91.6141 100.693 91.4577 99.981 91.4839C99.2466 91.4812 98.5243 91.6713 97.8863 92.0351L95.7915 93.2085C95.0624 93.6129 94.3246 94.0015 93.5786 94.374C92.8532 94.739 92.0519 94.9279 91.2398 94.9252C90.5136 94.957 89.798 94.7434 89.208 94.3189C88.6419 93.8692 88.1798 93.3024 87.8535 92.6572C87.5034 92.0003 87.1956 91.3217 86.9321 90.6255L86.1919 88.5937C85.8712 89.1204 85.5021 89.6161 85.0894 90.0742C84.6678 90.5436 84.3343 91.0851 84.105 91.6729C83.5695 92.9014 83.2388 94.2716 83.1206 95.7915C82.9159 98.1697 82.6481 100.485 82.3174 102.745C81.9804 105.05 81.4267 107.317 80.6636 109.518C80.446 110.221 80.2801 110.94 80.1675 111.667C80.0452 112.421 79.9611 113.181 79.9155 113.943C79.9155 115.951 80.5376 117.613 81.7661 118.928C82.9946 120.235 84.6563 120.897 86.751 120.897V120.897Z" fill="black"/>
</svg>
