<svg width="126" height="126" viewBox="0 0 126 126" fill="none" xmlns="http://www.w3.org/2000/svg">
<path d="M91.9652 65.9162C91.916 57.5244 95.7182 51.1998 103.396 46.5363C99.102 40.384 92.6051 37.0002 84.041 36.348C75.9322 35.7082 67.0605 41.073 63.8121 41.073C60.3791 41.073 52.5287 36.5695 46.3518 36.5695C33.6041 36.7664 20.0566 46.7332 20.0566 67.0113C20.0566 73.0037 21.1518 79.193 23.342 85.5668C26.2705 93.9586 36.8279 114.52 47.8406 114.188C53.5992 114.052 57.6721 110.102 65.1656 110.102C72.4377 110.102 76.2029 114.188 82.626 114.188C93.7371 114.028 103.286 95.3367 106.066 86.9203C91.1654 79.8943 91.9652 66.3469 91.9652 65.9162V65.9162ZM79.033 28.3869C85.2715 20.9795 84.7055 14.2365 84.5209 11.8125C79.0084 12.1324 72.6346 15.5654 69.0047 19.7859C65.0057 24.3141 62.6555 29.9127 63.16 36.225C69.1154 36.6803 74.5541 33.6164 79.033 28.3869V28.3869Z" fill="black"/>
</svg>
