<svg width="1440" height="900" viewBox="0 0 1440 900" fill="none" xmlns="http://www.w3.org/2000/svg">
<rect width="1440" height="900" fill="white"/>
<rect width="1440" height="45" fill="#343434"/>
<rect y="45" width="1440" height="855" fill="#535353"/>
<rect y="45" width="1440" height="19" fill="#626262"/>
<rect x="33" y="91" width="695" height="396" fill="#626262"/>
<rect x="29" y="91" width="68" height="396" fill="#343434"/>
<rect x="40" y="127" width="47" height="47" rx="4" fill="#626262"/>
<rect x="40" y="205" width="47" height="47" rx="4" fill="#626262"/>
<rect x="40" y="283" width="47" height="47" rx="4" fill="#626262"/>
<rect x="123" y="127" width="131" height="23" rx="2" fill="#767575"/>
<line x1="123" y1="163" x2="418" y2="163" stroke="#767575" stroke-width="2"/>
<circle cx="203.5" cy="163.5" r="5.5" fill="#767575"/>
<rect x="123" y="198" width="131" height="23" rx="2" fill="#767575"/>
<line x1="123" y1="234" x2="418" y2="234" stroke="#767575" stroke-width="2"/>
<circle cx="283.5" cy="234.5" r="5.5" fill="#767575"/>
<rect x="123" y="269" width="131" height="23" rx="2" fill="#767575"/>
<line x1="123" y1="305" x2="418" y2="305" stroke="#767575" stroke-width="2"/>
<circle cx="161.5" cy="305.5" r="5.5" fill="#767575"/>
<rect x="123" y="340" width="131" height="23" rx="2" fill="#767575"/>
<line x1="123" y1="376" x2="418" y2="376" stroke="#767575" stroke-width="2"/>
<circle cx="360.5" cy="376.5" r="5.5" fill="#767575"/>
<rect x="444" y="127" width="259" height="325" fill="#767575"/>
<rect x="749" y="91" width="656" height="396" fill="#626262"/>
<line x1="794" y1="425" x2="1358" y2="425" stroke="#767575" stroke-width="2"/>
<circle cx="831.5" cy="425.5" r="7.5" fill="#767575"/>
<path d="M1089 452L1071 462.392V441.608L1089 452Z" fill="#767575"/>
<rect x="1050" y="447" width="10" height="10" fill="#767575"/>
<rect x="1098" y="447" width="3" height="10" fill="#767575"/>
<rect x="1105" y="447" width="3" height="10" fill="#767575"/>
<rect x="29" y="501" width="332" height="185" fill="#626262"/>
<rect x="29" y="501" width="332" height="26" fill="#343434"/>
<path d="M81.6875 560.945H76.8359V555.842C76.8359 555.047 76.1936 554.405 75.3984 554.405H61.248L55.9787 549.364C55.9117 549.302 55.8235 549.266 55.7316 549.266H44.3125C43.5174 549.266 42.875 549.908 42.875 550.703V577.297C42.875 578.092 43.5174 578.734 44.3125 578.734H75.668C76.252 578.734 76.782 578.379 77.0021 577.836L83.0217 562.922C83.0891 562.751 83.125 562.567 83.125 562.383C83.125 561.588 82.4826 560.945 81.6875 560.945ZM73.6016 560.945H50.6914C50.1074 560.945 49.5773 561.3 49.3572 561.844L46.1094 569.894V552.5H54.5771L59.9498 557.639H73.6016V560.945Z" fill="#343434"/>
<path d="M146.531 554.405H130.404L125.135 549.364C125.068 549.302 124.98 549.266 124.888 549.266H113.469C112.674 549.266 112.031 549.908 112.031 550.703V577.297C112.031 578.092 112.674 578.734 113.469 578.734H146.531C147.326 578.734 147.969 578.092 147.969 577.297V555.842C147.969 555.047 147.326 554.405 146.531 554.405Z" fill="#343434"/>
<path d="M213.531 554.405H197.404L192.135 549.364C192.068 549.302 191.98 549.266 191.888 549.266H180.469C179.674 549.266 179.031 549.908 179.031 550.703V577.297C179.031 578.092 179.674 578.734 180.469 578.734H213.531C214.326 578.734 214.969 578.092 214.969 577.297V555.842C214.969 555.047 214.326 554.405 213.531 554.405Z" fill="#343434"/>
<path fill-rule="evenodd" clip-rule="evenodd" d="M244.354 549.625C244.227 549.625 244.105 549.675 244.015 549.765C243.925 549.855 243.875 549.977 243.875 550.104V577.896C243.875 578.16 244.09 578.375 244.354 578.375H283.646C283.773 578.375 283.895 578.325 283.985 578.235C284.075 578.145 284.125 578.023 284.125 577.896V550.104C284.125 549.977 284.075 549.855 283.985 549.765C283.895 549.675 283.773 549.625 283.646 549.625H244.354ZM241 550.104C241 548.253 242.503 546.75 244.354 546.75H283.646C285.497 546.75 287 548.253 287 550.104V577.896C287 578.785 286.647 579.639 286.018 580.268C285.389 580.897 284.535 581.25 283.646 581.25H244.354C243.465 581.25 242.611 580.897 241.982 580.268C241.353 579.639 241 578.785 241 577.896V550.104Z" fill="#343434"/>
<path d="M258.25 570.869V557.131C258.25 556.959 258.297 556.79 258.385 556.642C258.473 556.495 258.599 556.373 258.749 556.291C258.9 556.209 259.071 556.168 259.242 556.175C259.414 556.181 259.581 556.233 259.726 556.326L270.413 563.193C270.548 563.28 270.66 563.399 270.737 563.54C270.814 563.681 270.855 563.839 270.855 564C270.855 564.161 270.814 564.319 270.737 564.46C270.66 564.601 270.548 564.72 270.413 564.807L259.726 571.676C259.581 571.769 259.414 571.821 259.242 571.827C259.071 571.833 258.9 571.793 258.749 571.711C258.599 571.629 258.473 571.507 258.385 571.36C258.297 571.212 258.25 571.043 258.25 570.871V570.869Z" fill="#343434"/>
<rect x="29" y="700" width="332" height="171" fill="#626262"/>
<path d="M54.2761 725.2L44.6 734.876V731.624L51.0239 725.2H54.2761Z" fill="black"/>
<path d="M70.3761 725.2L67.0089 728.567C66.2761 728.146 65.4812 727.843 64.6537 727.67L67.1239 725.2H70.3761Z" fill="black"/>
<path d="M67.876 732.498C67.315 731.599 66.5156 730.873 65.5667 730.4C64.6178 729.928 63.5565 729.728 62.5009 729.823C61.2523 729.931 60.0732 730.445 59.1432 731.285C58.2132 732.125 57.5832 733.246 57.349 734.477C57.1148 735.708 57.2893 736.982 57.8459 738.105C58.4026 739.228 59.3108 740.138 60.4324 740.698C61.5541 741.257 62.8277 741.434 64.0594 741.203C65.2912 740.971 66.4136 740.344 67.2558 739.416C68.098 738.488 68.614 737.31 68.7251 736.061C68.8362 734.813 68.5364 733.562 67.8714 732.5L67.876 732.498Z" fill="black"/>
<path d="M69.532 730.842C70.0012 731.493 70.3761 732.215 70.636 732.992L78.3985 725.23C78.2498 725.21 78.1 725.2 77.95 725.2H75.1739L69.532 730.842Z" fill="black"/>
<path d="M57.25 743.6C56.3352 743.601 55.458 743.964 54.8111 744.611C54.1643 745.258 53.8006 746.135 53.8 747.05V752.8H72.2V747.05C72.2006 746.597 72.1118 746.148 71.9386 745.729C71.7654 745.31 71.5113 744.93 71.1909 744.609C70.8704 744.289 70.4898 744.035 70.071 743.861C69.6521 743.688 69.2032 743.599 68.75 743.6H57.25Z" fill="black"/>
<path d="M68.75 741.3C69.2491 741.3 69.7321 741.364 70.1944 741.484L81.4 730.274V728.65C81.4 728.169 81.3011 727.714 81.124 727.298L70.774 737.65C70.3995 739.036 69.661 740.296 68.635 741.3H68.75Z" fill="black"/>
<path d="M73.1384 743.336C73.6559 743.945 74.0469 744.663 74.2746 745.452L81.4 738.326V735.074L73.1384 743.336Z" fill="black"/>
<path d="M74.5 752.8V750.024L81.4 743.124V746.376L74.9761 752.8H74.5Z" fill="black"/>
<path d="M51.4999 752.126V748.874L47.6014 752.772C47.7486 752.791 47.9004 752.8 48.0499 752.8H50.826L51.4999 752.126Z" fill="black"/>
<path d="M55.1202 737.204C55.295 738.043 55.6032 738.837 56.0172 739.559L44.876 750.702C44.6935 750.275 44.5996 749.815 44.6 749.35V747.724L55.1202 737.204Z" fill="black"/>
<path d="M62.3261 725.2L44.6 742.926V739.674L59.0739 725.2H62.3261Z" fill="black"/>
<rect x="384" y="501" width="1021" height="370" fill="#626262"/>
<rect x="384" y="501" width="1021" height="26" fill="#343434"/>
<rect x="397" y="542" width="996" height="37" fill="#767575"/>
<rect x="397" y="587" width="58" height="265" fill="#767575"/>
<rect x="467" y="636" width="506" height="64" fill="#767575"/>
<rect x="472" y="640" width="97" height="56" fill="#626262"/>
<rect x="467" y="707" width="598" height="24" fill="#767575"/>
<path d="M481 724C481 725.105 479.88 726 478.5 726C477.12 726 476 725.105 476 724C476 722.895 477.12 722 478.5 722C479.88 722 481 722.895 481 724Z" fill="#626262"/>
<path fill-rule="evenodd" clip-rule="evenodd" d="M481 714V724H480V714H481Z" fill="#626262"/>
<path d="M480 713.82C480 713.589 480.08 713.365 480.227 713.186C480.373 713.008 480.577 712.885 480.804 712.84L483.804 712.24C483.949 712.211 484.099 712.215 484.242 712.25C484.386 712.286 484.519 712.353 484.634 712.447C484.748 712.541 484.84 712.659 484.904 712.792C484.967 712.926 485 713.072 485 713.22V715L480 716V713.82Z" fill="#626262"/>
<rect x="497" y="715" width="94" height="8" fill="#626262"/>
</svg>
